<svg xmlns="http://www.w3.org/2000/svg" width="100" height="100" viewBox="0 0 32 32" fill="none">
  <path d="M12.2145 8.75171H19.7852V22.3551H12.2145V8.75171Z" fill="#FF5F00"/>
  <path d="M12.6953 15.6523C12.6953 12.8884 13.9931 10.4369 15.9879 8.85059C14.5219 7.69697 12.6713 7 10.6524 7C5.86946 7 2 10.8695 2 15.6523C2 20.4351 5.86946 24.3047 10.6523 24.3047C12.6712 24.3047 14.5218 23.6077 15.9879 22.454C13.9931 20.8918 12.6953 18.4162 12.6953 15.6523Z" fill="#EB001B"/>
  <path d="M29.9998 15.6523C29.9998 20.4351 26.1304 24.3047 21.3475 24.3047C19.3286 24.3047 17.4781 23.6077 16.012 22.454C18.0308 20.8678 19.3047 18.4162 19.3047 15.6523C19.3047 12.8884 18.0067 10.4369 16.012 8.85059C17.4779 7.69697 19.3286 7 21.3475 7C26.1304 7 29.9998 10.8935 29.9998 15.6523Z" fill="#F79E1B"/>
</svg>